# xmcd
# Copyright (C) 1995-1998 Ti Kan
#
# Track frame offsets:
#       150
#       14515
#       29778
#       48454
#       62541
#       76833
#       92868
#       104577
#       116119
#       132358
#       149039
#       164585
#       176554
#       199309
#       212086
#       224736
#       250419
#       267809
#       280315
#       301143
#
# Disc length: 4309 seconds
#
# Revision: 0
# Processed by: cddbd v1.5.2PL0 Copyright (c) Steve Scherf et al.
# Submitted via: CD-Transfer v1.0
#
DISCID=4110d314
DTITLE=Kulio - 
DYEAR=1900
DGENRE=
TTITLE0=It's Too Late
TTITLE1=Bring It
TTITLE2=Old Soul Song
TTITLE3=No Substance
TTITLE4=Release The Dogs
TTITLE5=Rudie Can't Fail
TTITLE6=The Story Of My Life
TTITLE7=Africa Must Be Free
TTITLE8=Club Foot
TTITLE9=Concrete Jungle
TTITLE10=Doesn't Make It Allright
TTITLE11=A Message To You Rudy
TTITLE12=Ghost Town (Rmx)
TTITLE13=Gangsters
TTITLE14=My Collie (Not A Dog)
TTITLE15=Nit Klub
TTITLE16=Stereotypes
TTITLE17=Monkey Man
TTITLE18=Battle Hymns
TTITLE19=Give Peace A Chance
EXTD=
EXTT0=
EXTT1=
EXTT2=
EXTT3=
EXTT4=
EXTT5=
EXTT6=
EXTT7=
EXTT8=
EXTT9=
EXTT10=
EXTT11=
EXTT12=
EXTT13=
EXTT14=
EXTT15=
EXTT16=
EXTT17=
EXTT18=
EXTT19=
PLAYORDER=
